<svg xmlns="http://www.w3.org/2000/svg" viewBox="0 0 512 512" width="512" height="512" role="img" aria-label="Octógono"><defs><linearGradient id="o-aro" x1="0" y1="0" x2="0" y2="1"><stop offset="0" stop-color="#F05A4F"/><stop offset=".45" stop-color="#D7261E"/><stop offset="1" stop-color="#8F1712"/></linearGradient><radialGradient id="o-luz" cx=".5" cy=".38" r=".7"><stop offset="0" stop-color="#20232D"/><stop offset="1" stop-color="#15171F"/></radialGradient><clipPath id="o-rosto"><polygon points="437.1,331.0 331.0,437.1 181.0,437.1 74.9,331.0 74.9,181.0 181.0,74.9 331.0,74.9 437.1,181.0"/></clipPath><pattern id="o-grade" width="32" height="32" patternUnits="userSpaceOnUse" patternTransform="rotate(45 256 256)"><path d="M0 0H32M0 0V32" stroke="#252936" stroke-width="3" fill="none"/></pattern><clipPath id="o-dentes"><path d="M172 364 Q258 390 350 346 L352 368 Q260 404 170 386 Z"/></clipPath></defs><polygon points="479.6,358.6 348.6,489.6 163.4,489.6 32.4,358.6 32.4,173.4 163.4,42.4 348.6,42.4 479.6,173.4" fill="#0B0C10" opacity=".5"/><polygon points="477.7,347.8 347.8,477.7 164.2,477.7 34.3,347.8 34.3,164.2 164.2,34.3 347.8,34.3 477.7,164.2" fill="url(#o-aro)"/><polygon points="477.7,347.8 347.8,477.7 164.2,477.7 34.3,347.8 34.3,164.2 164.2,34.3 347.8,34.3 477.7,164.2" fill="none" stroke="#8F1712" stroke-width="5"/><polygon points="451.9,337.1 337.1,451.9 174.9,451.9 60.1,337.1 60.1,174.9 174.9,60.1 337.1,60.1 451.9,174.9" fill="none" stroke="#8F1712" stroke-width="4" opacity=".8"/><polygon points="438.9,331.8 331.8,438.9 180.2,438.9 73.1,331.8 73.1,180.2 180.2,73.1 331.8,73.1 438.9,180.2" fill="url(#o-luz)"/><rect x="0" y="0" width="512" height="512" fill="url(#o-grade)" clip-path="url(#o-rosto)"/><polygon points="438.9,331.8 331.8,438.9 180.2,438.9 73.1,331.8 73.1,180.2 180.2,73.1 331.8,73.1 438.9,180.2" fill="none" stroke="#0B0C10" stroke-width="6"/><rect x="444.3" y="325.2" width="30" height="30" rx="6" fill="#2B2F3A" stroke="#0B0C10" stroke-width="4"/><rect x="450.3" y="329.2" width="18" height="6" rx="3" fill="#4A5060"/><rect x="325.2" y="444.3" width="30" height="30" rx="6" fill="#2B2F3A" stroke="#0B0C10" stroke-width="4"/><rect x="331.2" y="448.3" width="18" height="6" rx="3" fill="#4A5060"/><rect x="156.8" y="444.3" width="30" height="30" rx="6" fill="#2B2F3A" stroke="#0B0C10" stroke-width="4"/><rect x="162.8" y="448.3" width="18" height="6" rx="3" fill="#4A5060"/><rect x="37.7" y="325.2" width="30" height="30" rx="6" fill="#2B2F3A" stroke="#0B0C10" stroke-width="4"/><rect x="43.7" y="329.2" width="18" height="6" rx="3" fill="#4A5060"/><rect x="37.7" y="156.8" width="30" height="30" rx="6" fill="#2B2F3A" stroke="#0B0C10" stroke-width="4"/><rect x="43.7" y="160.8" width="18" height="6" rx="3" fill="#4A5060"/><rect x="156.8" y="37.7" width="30" height="30" rx="6" fill="#2B2F3A" stroke="#0B0C10" stroke-width="4"/><rect x="162.8" y="41.7" width="18" height="6" rx="3" fill="#4A5060"/><rect x="325.2" y="37.7" width="30" height="30" rx="6" fill="#2B2F3A" stroke="#0B0C10" stroke-width="4"/><rect x="331.2" y="41.7" width="18" height="6" rx="3" fill="#4A5060"/><rect x="444.3" y="156.8" width="30" height="30" rx="6" fill="#2B2F3A" stroke="#0B0C10" stroke-width="4"/><rect x="450.3" y="160.8" width="18" height="6" rx="3" fill="#4A5060"/><path d="M104 204 Q172 206 242 236 L234 266 Q170 240 108 232 Z" fill="#F2EEE6"/><path d="M408 204 Q340 206 270 236 L278 266 Q342 240 404 232 Z" fill="#F2EEE6"/><path d="M322 188 L336 274" stroke="#1B1E27" stroke-width="15" stroke-linecap="round"/><path d="M322 188 L336 274" stroke="#D4A017" stroke-width="6" stroke-linecap="round"/><path d="M313.1 204.9 L337.1 208.9" stroke="#D4A017" stroke-width="5" stroke-linecap="round"/><path d="M315.9 222.1 L339.9 226.1" stroke="#D4A017" stroke-width="5" stroke-linecap="round"/><path d="M318.7 239.3 L342.7 243.3" stroke="#D4A017" stroke-width="5" stroke-linecap="round"/><path d="M321.5 256.5 L345.5 260.5" stroke="#D4A017" stroke-width="5" stroke-linecap="round"/><path d="M136 272 Q184 254 232 276 Q184 292 136 272 Z" fill="#F2EEE6"/><path d="M376 272 Q328 254 280 276 Q328 292 376 272 Z" fill="#F2EEE6"/><circle cx="206" cy="275" r="12" fill="#0B0C10"/><circle cx="306" cy="275" r="12" fill="#0B0C10"/><circle cx="210" cy="271" r="3.5" fill="#F2EEE6"/><circle cx="310" cy="271" r="3.5" fill="#F2EEE6"/><path d="M252 284 Q246 304 262 320 Q252 326 240 320" fill="none" stroke="#3A3F4D" stroke-width="7" stroke-linecap="round" stroke-linejoin="round"/><path d="M160 356 Q256 384 360 336 L364 374 Q258 416 156 394 Z" fill="#D7261E" stroke="#8F1712" stroke-width="7" stroke-linejoin="round"/><g clip-path="url(#o-dentes)"><rect x="140" y="320" width="240" height="100" fill="#F2EEE6"/><path d="M200 320 L204 420" stroke="#8F1712" stroke-width="5"/><path d="M228 320 L232 420" stroke="#8F1712" stroke-width="5"/><path d="M256 320 L260 420" stroke="#8F1712" stroke-width="5"/><path d="M284 320 L288 420" stroke="#8F1712" stroke-width="5"/><path d="M312 320 L316 420" stroke="#8F1712" stroke-width="5"/></g></svg>